<mxfile host="app.diagrams.net" agent="Mozilla/5.0 (Windows NT 10.0; Win64; x64) AppleWebKit/537.36 (KHTML, like Gecko) Chrome/132.0.0.0 Safari/537.36" version="26.0.16">
  <diagram name="Trang-1" id="hzGXjF6yoWx6bg2tw8JI">
    <mxGraphModel dx="1843" dy="1259" grid="0" gridSize="10" guides="1" tooltips="1" connect="1" arrows="1" fold="1" page="0" pageScale="1" pageWidth="827" pageHeight="1169" math="0" shadow="0">
      <root>
        <mxCell id="0" />
        <mxCell id="1" parent="0" />
        <mxCell id="76cQF0Q09tYwVLHvztgj-2" value="Customer" style="shape=umlActor;verticalLabelPosition=bottom;verticalAlign=top;html=1;outlineConnect=0;" vertex="1" parent="1">
          <mxGeometry x="40" y="-50" width="30" height="60" as="geometry" />
        </mxCell>
        <mxCell id="76cQF0Q09tYwVLHvztgj-3" value="Shiper" style="shape=umlActor;verticalLabelPosition=bottom;verticalAlign=top;html=1;outlineConnect=0;" vertex="1" parent="1">
          <mxGeometry x="40" y="400" width="30" height="60" as="geometry" />
        </mxCell>
        <mxCell id="76cQF0Q09tYwVLHvztgj-4" value="Log In/Log Out" style="ellipse;whiteSpace=wrap;html=1;" vertex="1" parent="1">
          <mxGeometry x="294" y="-300" width="120" height="40" as="geometry" />
        </mxCell>
        <mxCell id="76cQF0Q09tYwVLHvztgj-5" value="" style="endArrow=none;html=1;rounded=0;entryX=0;entryY=0.5;entryDx=0;entryDy=0;exitX=1;exitY=0.3333333333333333;exitDx=0;exitDy=0;exitPerimeter=0;" edge="1" parent="1" source="76cQF0Q09tYwVLHvztgj-2" target="76cQF0Q09tYwVLHvztgj-4">
          <mxGeometry width="50" height="50" relative="1" as="geometry">
            <mxPoint x="76.76" y="56.58" as="sourcePoint" />
            <mxPoint x="294" y="-286.57999999999987" as="targetPoint" />
          </mxGeometry>
        </mxCell>
        <mxCell id="76cQF0Q09tYwVLHvztgj-6" value="Register" style="ellipse;whiteSpace=wrap;html=1;" vertex="1" parent="1">
          <mxGeometry x="294" y="-250" width="120" height="40" as="geometry" />
        </mxCell>
        <mxCell id="76cQF0Q09tYwVLHvztgj-9" value="" style="endArrow=none;html=1;rounded=0;entryX=0;entryY=0.5;entryDx=0;entryDy=0;exitX=1;exitY=0.3333333333333333;exitDx=0;exitDy=0;exitPerimeter=0;" edge="1" parent="1" source="76cQF0Q09tYwVLHvztgj-2" target="76cQF0Q09tYwVLHvztgj-6">
          <mxGeometry width="50" height="50" relative="1" as="geometry">
            <mxPoint x="76.76" y="56.58" as="sourcePoint" />
            <mxPoint x="290.76" y="-243.42" as="targetPoint" />
          </mxGeometry>
        </mxCell>
        <mxCell id="76cQF0Q09tYwVLHvztgj-10" value="View product list" style="ellipse;whiteSpace=wrap;html=1;" vertex="1" parent="1">
          <mxGeometry x="294" y="-200" width="120" height="40" as="geometry" />
        </mxCell>
        <mxCell id="76cQF0Q09tYwVLHvztgj-11" value="" style="endArrow=none;html=1;rounded=0;entryX=0;entryY=0.5;entryDx=0;entryDy=0;exitX=1;exitY=0.3333333333333333;exitDx=0;exitDy=0;exitPerimeter=0;" edge="1" parent="1" source="76cQF0Q09tYwVLHvztgj-2" target="76cQF0Q09tYwVLHvztgj-10">
          <mxGeometry width="50" height="50" relative="1" as="geometry">
            <mxPoint x="76.76" y="56.58" as="sourcePoint" />
            <mxPoint x="290.76" y="-193.42" as="targetPoint" />
          </mxGeometry>
        </mxCell>
        <mxCell id="76cQF0Q09tYwVLHvztgj-12" value="Search for products" style="ellipse;whiteSpace=wrap;html=1;" vertex="1" parent="1">
          <mxGeometry x="294" y="-150" width="120" height="40" as="geometry" />
        </mxCell>
        <mxCell id="76cQF0Q09tYwVLHvztgj-62" style="edgeStyle=orthogonalEdgeStyle;rounded=0;orthogonalLoop=1;jettySize=auto;html=1;exitX=1;exitY=0.5;exitDx=0;exitDy=0;" edge="1" parent="1" source="76cQF0Q09tYwVLHvztgj-13">
          <mxGeometry relative="1" as="geometry">
            <mxPoint x="414.14285714285734" y="-80.28571428571422" as="targetPoint" />
          </mxGeometry>
        </mxCell>
        <mxCell id="76cQF0Q09tYwVLHvztgj-13" value="View product detail" style="ellipse;whiteSpace=wrap;html=1;" vertex="1" parent="1">
          <mxGeometry x="294" y="-100" width="120" height="40" as="geometry" />
        </mxCell>
        <mxCell id="76cQF0Q09tYwVLHvztgj-14" value="Add product to cart" style="ellipse;whiteSpace=wrap;html=1;" vertex="1" parent="1">
          <mxGeometry x="294" y="-50" width="120" height="40" as="geometry" />
        </mxCell>
        <mxCell id="76cQF0Q09tYwVLHvztgj-15" value="Update cart" style="ellipse;whiteSpace=wrap;html=1;" vertex="1" parent="1">
          <mxGeometry x="294" width="120" height="40" as="geometry" />
        </mxCell>
        <mxCell id="76cQF0Q09tYwVLHvztgj-16" value="Order" style="ellipse;whiteSpace=wrap;html=1;" vertex="1" parent="1">
          <mxGeometry x="294" y="50" width="120" height="40" as="geometry" />
        </mxCell>
        <mxCell id="76cQF0Q09tYwVLHvztgj-17" value="Pay" style="ellipse;whiteSpace=wrap;html=1;" vertex="1" parent="1">
          <mxGeometry x="294" y="100" width="120" height="40" as="geometry" />
        </mxCell>
        <mxCell id="76cQF0Q09tYwVLHvztgj-18" value="View purchase history" style="ellipse;whiteSpace=wrap;html=1;" vertex="1" parent="1">
          <mxGeometry x="294" y="150" width="120" height="40" as="geometry" />
        </mxCell>
        <mxCell id="76cQF0Q09tYwVLHvztgj-19" value="Track order status" style="ellipse;whiteSpace=wrap;html=1;" vertex="1" parent="1">
          <mxGeometry x="294" y="200" width="120" height="40" as="geometry" />
        </mxCell>
        <mxCell id="76cQF0Q09tYwVLHvztgj-20" value="cancel order" style="ellipse;whiteSpace=wrap;html=1;" vertex="1" parent="1">
          <mxGeometry x="294" y="250" width="120" height="40" as="geometry" />
        </mxCell>
        <mxCell id="76cQF0Q09tYwVLHvztgj-21" value="Product Review" style="ellipse;whiteSpace=wrap;html=1;" vertex="1" parent="1">
          <mxGeometry x="294" y="300" width="120" height="40" as="geometry" />
        </mxCell>
        <mxCell id="76cQF0Q09tYwVLHvztgj-22" value="Personal information management" style="ellipse;whiteSpace=wrap;html=1;" vertex="1" parent="1">
          <mxGeometry x="294" y="350" width="120" height="60" as="geometry" />
        </mxCell>
        <mxCell id="76cQF0Q09tYwVLHvztgj-23" value="" style="endArrow=none;html=1;rounded=0;entryX=0;entryY=0.5;entryDx=0;entryDy=0;exitX=1;exitY=0.3333333333333333;exitDx=0;exitDy=0;exitPerimeter=0;" edge="1" parent="1" source="76cQF0Q09tYwVLHvztgj-2" target="76cQF0Q09tYwVLHvztgj-12">
          <mxGeometry width="50" height="50" relative="1" as="geometry">
            <mxPoint x="76.76" y="56.58" as="sourcePoint" />
            <mxPoint x="290.76" y="-143.42" as="targetPoint" />
          </mxGeometry>
        </mxCell>
        <mxCell id="76cQF0Q09tYwVLHvztgj-24" value="" style="endArrow=none;html=1;rounded=0;entryX=0;entryY=0.5;entryDx=0;entryDy=0;exitX=1;exitY=0.3333333333333333;exitDx=0;exitDy=0;exitPerimeter=0;" edge="1" parent="1" source="76cQF0Q09tYwVLHvztgj-2" target="76cQF0Q09tYwVLHvztgj-13">
          <mxGeometry width="50" height="50" relative="1" as="geometry">
            <mxPoint x="76.76" y="56.58" as="sourcePoint" />
            <mxPoint x="290.76" y="-93.42" as="targetPoint" />
          </mxGeometry>
        </mxCell>
        <mxCell id="76cQF0Q09tYwVLHvztgj-25" value="" style="endArrow=none;html=1;rounded=0;exitX=1;exitY=0.3333333333333333;exitDx=0;exitDy=0;exitPerimeter=0;entryX=0;entryY=0.5;entryDx=0;entryDy=0;" edge="1" parent="1" source="76cQF0Q09tYwVLHvztgj-2" target="76cQF0Q09tYwVLHvztgj-14">
          <mxGeometry width="50" height="50" relative="1" as="geometry">
            <mxPoint x="76.76" y="56.58" as="sourcePoint" />
            <mxPoint x="290.76" y="-43.42" as="targetPoint" />
          </mxGeometry>
        </mxCell>
        <mxCell id="76cQF0Q09tYwVLHvztgj-26" value="" style="endArrow=none;html=1;rounded=0;entryX=0;entryY=0.5;entryDx=0;entryDy=0;exitX=1;exitY=0.3333333333333333;exitDx=0;exitDy=0;exitPerimeter=0;" edge="1" parent="1" source="76cQF0Q09tYwVLHvztgj-2" target="76cQF0Q09tYwVLHvztgj-15">
          <mxGeometry width="50" height="50" relative="1" as="geometry">
            <mxPoint x="76.76" y="56.58" as="sourcePoint" />
            <mxPoint x="290.76" y="6.58" as="targetPoint" />
          </mxGeometry>
        </mxCell>
        <mxCell id="76cQF0Q09tYwVLHvztgj-27" value="" style="endArrow=none;html=1;rounded=0;entryX=0.061;entryY=0.213;entryDx=0;entryDy=0;exitX=1;exitY=0.3333333333333333;exitDx=0;exitDy=0;exitPerimeter=0;entryPerimeter=0;" edge="1" parent="1" source="76cQF0Q09tYwVLHvztgj-2" target="76cQF0Q09tYwVLHvztgj-16">
          <mxGeometry width="50" height="50" relative="1" as="geometry">
            <mxPoint x="76.76" y="56.58" as="sourcePoint" />
            <mxPoint x="290.76" y="56.58" as="targetPoint" />
          </mxGeometry>
        </mxCell>
        <mxCell id="76cQF0Q09tYwVLHvztgj-28" value="" style="endArrow=none;html=1;rounded=0;entryX=0;entryY=0.5;entryDx=0;entryDy=0;exitX=1;exitY=0.3333333333333333;exitDx=0;exitDy=0;exitPerimeter=0;" edge="1" parent="1" source="76cQF0Q09tYwVLHvztgj-2" target="76cQF0Q09tYwVLHvztgj-17">
          <mxGeometry width="50" height="50" relative="1" as="geometry">
            <mxPoint x="76.76" y="56.58" as="sourcePoint" />
            <mxPoint x="290.76" y="106.58" as="targetPoint" />
          </mxGeometry>
        </mxCell>
        <mxCell id="76cQF0Q09tYwVLHvztgj-29" value="" style="endArrow=none;html=1;rounded=0;entryX=0;entryY=0.5;entryDx=0;entryDy=0;exitX=1;exitY=0.3333333333333333;exitDx=0;exitDy=0;exitPerimeter=0;" edge="1" parent="1" source="76cQF0Q09tYwVLHvztgj-2" target="76cQF0Q09tYwVLHvztgj-18">
          <mxGeometry width="50" height="50" relative="1" as="geometry">
            <mxPoint x="76.76" y="56.58" as="sourcePoint" />
            <mxPoint x="290.76" y="156.58" as="targetPoint" />
          </mxGeometry>
        </mxCell>
        <mxCell id="76cQF0Q09tYwVLHvztgj-30" value="" style="endArrow=none;html=1;rounded=0;exitX=0.07;exitY=0.303;exitDx=0;exitDy=0;entryX=1;entryY=0.3333333333333333;entryDx=0;entryDy=0;entryPerimeter=0;exitPerimeter=0;" edge="1" parent="1" source="76cQF0Q09tYwVLHvztgj-19" target="76cQF0Q09tYwVLHvztgj-2">
          <mxGeometry width="50" height="50" relative="1" as="geometry">
            <mxPoint x="290.76" y="206.58" as="sourcePoint" />
            <mxPoint x="76.76" y="56.58" as="targetPoint" />
          </mxGeometry>
        </mxCell>
        <mxCell id="76cQF0Q09tYwVLHvztgj-31" value="" style="endArrow=none;html=1;rounded=0;entryX=0;entryY=0.5;entryDx=0;entryDy=0;exitX=1;exitY=0.3333333333333333;exitDx=0;exitDy=0;exitPerimeter=0;" edge="1" parent="1" source="76cQF0Q09tYwVLHvztgj-2" target="76cQF0Q09tYwVLHvztgj-20">
          <mxGeometry width="50" height="50" relative="1" as="geometry">
            <mxPoint x="80" y="-160" as="sourcePoint" />
            <mxPoint x="290.76" y="256.58" as="targetPoint" />
          </mxGeometry>
        </mxCell>
        <mxCell id="76cQF0Q09tYwVLHvztgj-32" value="" style="endArrow=none;html=1;rounded=0;entryX=0;entryY=0.5;entryDx=0;entryDy=0;exitX=1;exitY=0.3333333333333333;exitDx=0;exitDy=0;exitPerimeter=0;" edge="1" parent="1" source="76cQF0Q09tYwVLHvztgj-2" target="76cQF0Q09tYwVLHvztgj-21">
          <mxGeometry width="50" height="50" relative="1" as="geometry">
            <mxPoint x="70" y="-170" as="sourcePoint" />
            <mxPoint x="290.76" y="306.58" as="targetPoint" />
          </mxGeometry>
        </mxCell>
        <mxCell id="76cQF0Q09tYwVLHvztgj-33" value="" style="endArrow=none;html=1;rounded=0;entryX=0;entryY=0.5;entryDx=0;entryDy=0;exitX=1;exitY=0.3333333333333333;exitDx=0;exitDy=0;exitPerimeter=0;" edge="1" parent="1" source="76cQF0Q09tYwVLHvztgj-2" target="76cQF0Q09tYwVLHvztgj-22">
          <mxGeometry width="50" height="50" relative="1" as="geometry">
            <mxPoint x="50" y="-180" as="sourcePoint" />
            <mxPoint x="300" y="380" as="targetPoint" />
          </mxGeometry>
        </mxCell>
        <mxCell id="76cQF0Q09tYwVLHvztgj-34" value="View product reviews" style="ellipse;whiteSpace=wrap;html=1;" vertex="1" parent="1">
          <mxGeometry x="294" y="420" width="120" height="40" as="geometry" />
        </mxCell>
        <mxCell id="76cQF0Q09tYwVLHvztgj-38" value="" style="endArrow=none;html=1;rounded=0;entryX=0;entryY=0.5;entryDx=0;entryDy=0;exitX=1;exitY=0.3333333333333333;exitDx=0;exitDy=0;exitPerimeter=0;" edge="1" parent="1" source="76cQF0Q09tYwVLHvztgj-2" target="76cQF0Q09tYwVLHvztgj-34">
          <mxGeometry width="50" height="50" relative="1" as="geometry">
            <mxPoint x="50" y="-180" as="sourcePoint" />
            <mxPoint x="290.76" y="426.58" as="targetPoint" />
          </mxGeometry>
        </mxCell>
        <mxCell id="76cQF0Q09tYwVLHvztgj-39" value="" style="endArrow=none;html=1;rounded=0;exitX=1;exitY=0.3333333333333333;exitDx=0;exitDy=0;exitPerimeter=0;entryX=0;entryY=0.5;entryDx=0;entryDy=0;" edge="1" parent="1" source="76cQF0Q09tYwVLHvztgj-3" target="76cQF0Q09tYwVLHvztgj-4">
          <mxGeometry width="50" height="50" relative="1" as="geometry">
            <mxPoint x="510" y="110" as="sourcePoint" />
            <mxPoint x="470" y="-40" as="targetPoint" />
          </mxGeometry>
        </mxCell>
        <mxCell id="76cQF0Q09tYwVLHvztgj-40" value="" style="endArrow=none;html=1;rounded=0;entryX=0;entryY=0.5;entryDx=0;entryDy=0;exitX=1;exitY=0.3333333333333333;exitDx=0;exitDy=0;exitPerimeter=0;" edge="1" parent="1" source="76cQF0Q09tYwVLHvztgj-3" target="76cQF0Q09tYwVLHvztgj-6">
          <mxGeometry width="50" height="50" relative="1" as="geometry">
            <mxPoint x="510" y="110" as="sourcePoint" />
            <mxPoint x="560" y="60" as="targetPoint" />
          </mxGeometry>
        </mxCell>
        <mxCell id="76cQF0Q09tYwVLHvztgj-41" value="View order details" style="ellipse;whiteSpace=wrap;html=1;" vertex="1" parent="1">
          <mxGeometry x="290" y="470" width="120" height="40" as="geometry" />
        </mxCell>
        <mxCell id="76cQF0Q09tYwVLHvztgj-43" value="" style="endArrow=none;html=1;rounded=0;exitX=1;exitY=0.3333333333333333;exitDx=0;exitDy=0;exitPerimeter=0;entryX=0;entryY=0.5;entryDx=0;entryDy=0;" edge="1" parent="1" source="76cQF0Q09tYwVLHvztgj-2" target="76cQF0Q09tYwVLHvztgj-41">
          <mxGeometry width="50" height="50" relative="1" as="geometry">
            <mxPoint x="500" y="170" as="sourcePoint" />
            <mxPoint x="550" y="120" as="targetPoint" />
          </mxGeometry>
        </mxCell>
        <mxCell id="76cQF0Q09tYwVLHvztgj-44" value="" style="endArrow=none;html=1;rounded=0;exitX=1;exitY=0.3333333333333333;exitDx=0;exitDy=0;exitPerimeter=0;entryX=0;entryY=0.5;entryDx=0;entryDy=0;" edge="1" parent="1" source="76cQF0Q09tYwVLHvztgj-3" target="76cQF0Q09tYwVLHvztgj-41">
          <mxGeometry width="50" height="50" relative="1" as="geometry">
            <mxPoint x="500" y="170" as="sourcePoint" />
            <mxPoint x="550" y="120" as="targetPoint" />
          </mxGeometry>
        </mxCell>
        <mxCell id="76cQF0Q09tYwVLHvztgj-45" value="View order list" style="ellipse;whiteSpace=wrap;html=1;" vertex="1" parent="1">
          <mxGeometry x="470" y="460" width="120" height="40" as="geometry" />
        </mxCell>
        <mxCell id="76cQF0Q09tYwVLHvztgj-46" value="" style="endArrow=none;html=1;rounded=0;exitX=1;exitY=0.3333333333333333;exitDx=0;exitDy=0;exitPerimeter=0;entryX=0;entryY=0.5;entryDx=0;entryDy=0;" edge="1" parent="1" source="76cQF0Q09tYwVLHvztgj-3" target="76cQF0Q09tYwVLHvztgj-45">
          <mxGeometry width="50" height="50" relative="1" as="geometry">
            <mxPoint x="500" y="200" as="sourcePoint" />
            <mxPoint x="550" y="150" as="targetPoint" />
          </mxGeometry>
        </mxCell>
        <mxCell id="76cQF0Q09tYwVLHvztgj-48" value="" style="endArrow=none;html=1;rounded=0;entryX=0;entryY=0.5;entryDx=0;entryDy=0;exitX=1;exitY=0.3333333333333333;exitDx=0;exitDy=0;exitPerimeter=0;" edge="1" parent="1" source="76cQF0Q09tYwVLHvztgj-3" target="76cQF0Q09tYwVLHvztgj-47">
          <mxGeometry width="50" height="50" relative="1" as="geometry">
            <mxPoint x="70" y="420" as="sourcePoint" />
            <mxPoint x="560" y="100" as="targetPoint" />
          </mxGeometry>
        </mxCell>
        <mxCell id="76cQF0Q09tYwVLHvztgj-49" value="Admin" style="shape=umlActor;verticalLabelPosition=bottom;verticalAlign=top;html=1;outlineConnect=0;" vertex="1" parent="1">
          <mxGeometry x="790" width="30" height="60" as="geometry" />
        </mxCell>
        <mxCell id="76cQF0Q09tYwVLHvztgj-50" value="Add product" style="ellipse;whiteSpace=wrap;html=1;" vertex="1" parent="1">
          <mxGeometry x="700" y="-300" width="120" height="40" as="geometry" />
        </mxCell>
        <mxCell id="76cQF0Q09tYwVLHvztgj-51" value="Fix product" style="ellipse;whiteSpace=wrap;html=1;" vertex="1" parent="1">
          <mxGeometry x="570" y="-300" width="120" height="40" as="geometry" />
        </mxCell>
        <mxCell id="76cQF0Q09tYwVLHvztgj-52" value="Delete product" style="ellipse;whiteSpace=wrap;html=1;" vertex="1" parent="1">
          <mxGeometry x="440" y="-300" width="120" height="40" as="geometry" />
        </mxCell>
        <mxCell id="76cQF0Q09tYwVLHvztgj-55" value="View discount detail" style="ellipse;whiteSpace=wrap;html=1;" vertex="1" parent="1">
          <mxGeometry x="430" y="-20" width="120" height="40" as="geometry" />
        </mxCell>
        <mxCell id="76cQF0Q09tYwVLHvztgj-56" value="View discount codes list" style="ellipse;whiteSpace=wrap;html=1;" vertex="1" parent="1">
          <mxGeometry x="430" y="40" width="150" height="40" as="geometry" />
        </mxCell>
        <mxCell id="76cQF0Q09tYwVLHvztgj-58" value="Order Confirmation" style="ellipse;whiteSpace=wrap;html=1;" vertex="1" parent="1">
          <mxGeometry x="440" y="100" width="120" height="40" as="geometry" />
        </mxCell>
        <mxCell id="76cQF0Q09tYwVLHvztgj-60" value="View&amp;nbsp; information" style="ellipse;whiteSpace=wrap;html=1;" vertex="1" parent="1">
          <mxGeometry x="435" y="150" width="140" height="40" as="geometry" />
        </mxCell>
        <mxCell id="76cQF0Q09tYwVLHvztgj-61" value="View revenue" style="ellipse;whiteSpace=wrap;html=1;" vertex="1" parent="1">
          <mxGeometry x="435" y="200" width="120" height="40" as="geometry" />
        </mxCell>
        <mxCell id="76cQF0Q09tYwVLHvztgj-63" value="" style="endArrow=none;html=1;rounded=0;entryX=0;entryY=0.3333333333333333;entryDx=0;entryDy=0;entryPerimeter=0;exitX=1;exitY=0.5;exitDx=0;exitDy=0;" edge="1" parent="1" source="76cQF0Q09tYwVLHvztgj-13" target="76cQF0Q09tYwVLHvztgj-49">
          <mxGeometry width="50" height="50" relative="1" as="geometry">
            <mxPoint x="620" y="100" as="sourcePoint" />
            <mxPoint x="900" y="-2.2737367544323206e-13" as="targetPoint" />
          </mxGeometry>
        </mxCell>
        <mxCell id="76cQF0Q09tYwVLHvztgj-64" value="" style="endArrow=none;html=1;rounded=0;entryX=0;entryY=0.3333333333333333;entryDx=0;entryDy=0;entryPerimeter=0;exitX=1;exitY=0.5;exitDx=0;exitDy=0;" edge="1" parent="1" source="76cQF0Q09tYwVLHvztgj-4" target="76cQF0Q09tYwVLHvztgj-49">
          <mxGeometry width="50" height="50" relative="1" as="geometry">
            <mxPoint x="510" y="120" as="sourcePoint" />
            <mxPoint x="790" y="20" as="targetPoint" />
          </mxGeometry>
        </mxCell>
        <mxCell id="76cQF0Q09tYwVLHvztgj-65" value="" style="endArrow=none;html=1;rounded=0;entryX=1;entryY=0.5;entryDx=0;entryDy=0;exitX=0;exitY=0.3333333333333333;exitDx=0;exitDy=0;exitPerimeter=0;" edge="1" parent="1" source="76cQF0Q09tYwVLHvztgj-49" target="76cQF0Q09tYwVLHvztgj-6">
          <mxGeometry width="50" height="50" relative="1" as="geometry">
            <mxPoint x="790" y="20" as="sourcePoint" />
            <mxPoint x="560" y="10" as="targetPoint" />
          </mxGeometry>
        </mxCell>
        <mxCell id="76cQF0Q09tYwVLHvztgj-66" value="" style="endArrow=none;html=1;rounded=0;entryX=1;entryY=0.5;entryDx=0;entryDy=0;exitX=0;exitY=0.3333333333333333;exitDx=0;exitDy=0;exitPerimeter=0;" edge="1" parent="1" source="76cQF0Q09tYwVLHvztgj-49" target="76cQF0Q09tYwVLHvztgj-10">
          <mxGeometry width="50" height="50" relative="1" as="geometry">
            <mxPoint x="510" y="60" as="sourcePoint" />
            <mxPoint x="560" y="10" as="targetPoint" />
          </mxGeometry>
        </mxCell>
        <mxCell id="76cQF0Q09tYwVLHvztgj-67" value="" style="endArrow=none;html=1;rounded=0;entryX=0.585;entryY=1.007;entryDx=0;entryDy=0;entryPerimeter=0;exitX=0;exitY=0.3333333333333333;exitDx=0;exitDy=0;exitPerimeter=0;" edge="1" parent="1" source="76cQF0Q09tYwVLHvztgj-49" target="76cQF0Q09tYwVLHvztgj-52">
          <mxGeometry width="50" height="50" relative="1" as="geometry">
            <mxPoint x="510" y="60" as="sourcePoint" />
            <mxPoint x="560" y="10" as="targetPoint" />
          </mxGeometry>
        </mxCell>
        <mxCell id="76cQF0Q09tYwVLHvztgj-68" value="" style="endArrow=none;html=1;rounded=0;entryX=0.5;entryY=1;entryDx=0;entryDy=0;exitX=0;exitY=0.3333333333333333;exitDx=0;exitDy=0;exitPerimeter=0;" edge="1" parent="1" source="76cQF0Q09tYwVLHvztgj-49" target="76cQF0Q09tYwVLHvztgj-51">
          <mxGeometry width="50" height="50" relative="1" as="geometry">
            <mxPoint x="510" y="60" as="sourcePoint" />
            <mxPoint x="560" y="10" as="targetPoint" />
          </mxGeometry>
        </mxCell>
        <mxCell id="76cQF0Q09tYwVLHvztgj-69" value="" style="endArrow=none;html=1;rounded=0;entryX=0.5;entryY=1;entryDx=0;entryDy=0;exitX=0;exitY=0.3333333333333333;exitDx=0;exitDy=0;exitPerimeter=0;" edge="1" parent="1" source="76cQF0Q09tYwVLHvztgj-49" target="76cQF0Q09tYwVLHvztgj-50">
          <mxGeometry width="50" height="50" relative="1" as="geometry">
            <mxPoint x="510" y="60" as="sourcePoint" />
            <mxPoint x="560" y="10" as="targetPoint" />
          </mxGeometry>
        </mxCell>
        <mxCell id="76cQF0Q09tYwVLHvztgj-71" value="" style="endArrow=none;html=1;rounded=0;entryX=0;entryY=0.3333333333333333;entryDx=0;entryDy=0;entryPerimeter=0;exitX=1;exitY=0.5;exitDx=0;exitDy=0;" edge="1" parent="1" source="76cQF0Q09tYwVLHvztgj-55" target="76cQF0Q09tYwVLHvztgj-49">
          <mxGeometry width="50" height="50" relative="1" as="geometry">
            <mxPoint x="540" y="40" as="sourcePoint" />
            <mxPoint x="790" y="20" as="targetPoint" />
          </mxGeometry>
        </mxCell>
        <mxCell id="76cQF0Q09tYwVLHvztgj-73" value="" style="endArrow=none;html=1;rounded=0;entryX=1;entryY=0.5;entryDx=0;entryDy=0;" edge="1" parent="1" target="76cQF0Q09tYwVLHvztgj-56">
          <mxGeometry width="50" height="50" relative="1" as="geometry">
            <mxPoint x="790" y="20" as="sourcePoint" />
            <mxPoint x="590" y="-10" as="targetPoint" />
          </mxGeometry>
        </mxCell>
        <mxCell id="76cQF0Q09tYwVLHvztgj-74" value="" style="endArrow=none;html=1;rounded=0;exitX=1;exitY=0.3333333333333333;exitDx=0;exitDy=0;exitPerimeter=0;entryX=0;entryY=0.5;entryDx=0;entryDy=0;" edge="1" parent="1" source="76cQF0Q09tYwVLHvztgj-2" target="76cQF0Q09tYwVLHvztgj-56">
          <mxGeometry width="50" height="50" relative="1" as="geometry">
            <mxPoint x="540" y="40" as="sourcePoint" />
            <mxPoint x="590" y="-10" as="targetPoint" />
          </mxGeometry>
        </mxCell>
        <mxCell id="76cQF0Q09tYwVLHvztgj-75" value="" style="endArrow=none;html=1;rounded=0;entryX=0;entryY=0.3333333333333333;entryDx=0;entryDy=0;entryPerimeter=0;exitX=1;exitY=0.5;exitDx=0;exitDy=0;" edge="1" parent="1" source="76cQF0Q09tYwVLHvztgj-58" target="76cQF0Q09tYwVLHvztgj-49">
          <mxGeometry width="50" height="50" relative="1" as="geometry">
            <mxPoint x="550" y="130" as="sourcePoint" />
            <mxPoint x="600" y="80" as="targetPoint" />
          </mxGeometry>
        </mxCell>
        <mxCell id="76cQF0Q09tYwVLHvztgj-77" value="" style="endArrow=none;html=1;rounded=0;entryX=0;entryY=0.3333333333333333;entryDx=0;entryDy=0;entryPerimeter=0;exitX=1;exitY=0.25;exitDx=0;exitDy=0;exitPerimeter=0;" edge="1" parent="1" source="76cQF0Q09tYwVLHvztgj-60" target="76cQF0Q09tYwVLHvztgj-49">
          <mxGeometry width="50" height="50" relative="1" as="geometry">
            <mxPoint x="520" y="120" as="sourcePoint" />
            <mxPoint x="570" y="70" as="targetPoint" />
          </mxGeometry>
        </mxCell>
        <mxCell id="76cQF0Q09tYwVLHvztgj-78" value="" style="endArrow=none;html=1;rounded=0;entryX=0;entryY=0.3333333333333333;entryDx=0;entryDy=0;entryPerimeter=0;exitX=1;exitY=0.5;exitDx=0;exitDy=0;" edge="1" parent="1" source="76cQF0Q09tYwVLHvztgj-61" target="76cQF0Q09tYwVLHvztgj-49">
          <mxGeometry width="50" height="50" relative="1" as="geometry">
            <mxPoint x="420" y="120" as="sourcePoint" />
            <mxPoint x="470" y="70" as="targetPoint" />
          </mxGeometry>
        </mxCell>
        <mxCell id="76cQF0Q09tYwVLHvztgj-80" value="" style="endArrow=none;html=1;rounded=0;exitX=0;exitY=0.3333333333333333;exitDx=0;exitDy=0;exitPerimeter=0;entryX=1;entryY=0.5;entryDx=0;entryDy=0;" edge="1" parent="1" source="76cQF0Q09tYwVLHvztgj-49" target="76cQF0Q09tYwVLHvztgj-47">
          <mxGeometry width="50" height="50" relative="1" as="geometry">
            <mxPoint x="790" y="20" as="sourcePoint" />
            <mxPoint x="410" y="490" as="targetPoint" />
          </mxGeometry>
        </mxCell>
        <mxCell id="76cQF0Q09tYwVLHvztgj-47" value="update order status" style="ellipse;whiteSpace=wrap;html=1;" vertex="1" parent="1">
          <mxGeometry x="470" y="390" width="120" height="40" as="geometry" />
        </mxCell>
        <mxCell id="76cQF0Q09tYwVLHvztgj-81" value="" style="endArrow=none;html=1;rounded=0;entryX=0;entryY=0.3333333333333333;entryDx=0;entryDy=0;entryPerimeter=0;exitX=1;exitY=0.5;exitDx=0;exitDy=0;" edge="1" parent="1" source="76cQF0Q09tYwVLHvztgj-41" target="76cQF0Q09tYwVLHvztgj-49">
          <mxGeometry width="50" height="50" relative="1" as="geometry">
            <mxPoint x="420" y="120" as="sourcePoint" />
            <mxPoint x="470" y="70" as="targetPoint" />
          </mxGeometry>
        </mxCell>
        <mxCell id="76cQF0Q09tYwVLHvztgj-82" value="" style="endArrow=none;html=1;rounded=0;entryX=0;entryY=0.3333333333333333;entryDx=0;entryDy=0;entryPerimeter=0;exitX=1;exitY=0.5;exitDx=0;exitDy=0;" edge="1" parent="1" source="76cQF0Q09tYwVLHvztgj-45" target="76cQF0Q09tYwVLHvztgj-49">
          <mxGeometry width="50" height="50" relative="1" as="geometry">
            <mxPoint x="420" y="120" as="sourcePoint" />
            <mxPoint x="570" y="30" as="targetPoint" />
          </mxGeometry>
        </mxCell>
        <mxCell id="76cQF0Q09tYwVLHvztgj-83" value="" style="endArrow=none;html=1;rounded=0;entryX=1;entryY=0.5;entryDx=0;entryDy=0;exitX=0;exitY=0.3333333333333333;exitDx=0;exitDy=0;exitPerimeter=0;" edge="1" parent="1" source="76cQF0Q09tYwVLHvztgj-49" target="76cQF0Q09tYwVLHvztgj-12">
          <mxGeometry width="50" height="50" relative="1" as="geometry">
            <mxPoint x="300" y="130" as="sourcePoint" />
            <mxPoint x="350" y="80" as="targetPoint" />
          </mxGeometry>
        </mxCell>
        <mxCell id="76cQF0Q09tYwVLHvztgj-85" value="get discount code" style="ellipse;whiteSpace=wrap;html=1;" vertex="1" parent="1">
          <mxGeometry x="90" y="-300" width="120" height="40" as="geometry" />
        </mxCell>
        <mxCell id="76cQF0Q09tYwVLHvztgj-86" value="" style="endArrow=none;html=1;rounded=0;exitX=1;exitY=0.3333333333333333;exitDx=0;exitDy=0;exitPerimeter=0;entryX=0.5;entryY=1;entryDx=0;entryDy=0;" edge="1" parent="1" source="76cQF0Q09tYwVLHvztgj-2" target="76cQF0Q09tYwVLHvztgj-85">
          <mxGeometry width="50" height="50" relative="1" as="geometry">
            <mxPoint x="190" y="-80" as="sourcePoint" />
            <mxPoint x="240" y="-130" as="targetPoint" />
          </mxGeometry>
        </mxCell>
        <mxCell id="76cQF0Q09tYwVLHvztgj-87" value="Add discount code" style="ellipse;whiteSpace=wrap;html=1;" vertex="1" parent="1">
          <mxGeometry x="440" y="250" width="120" height="40" as="geometry" />
        </mxCell>
        <mxCell id="76cQF0Q09tYwVLHvztgj-88" value="" style="endArrow=none;html=1;rounded=0;entryX=0;entryY=0.3333333333333333;entryDx=0;entryDy=0;entryPerimeter=0;exitX=1;exitY=0.5;exitDx=0;exitDy=0;" edge="1" parent="1" source="76cQF0Q09tYwVLHvztgj-87" target="76cQF0Q09tYwVLHvztgj-49">
          <mxGeometry width="50" height="50" relative="1" as="geometry">
            <mxPoint x="190" y="110" as="sourcePoint" />
            <mxPoint x="240" y="60" as="targetPoint" />
          </mxGeometry>
        </mxCell>
        <mxCell id="76cQF0Q09tYwVLHvztgj-89" value="Update discount code" style="ellipse;whiteSpace=wrap;html=1;" vertex="1" parent="1">
          <mxGeometry x="630" y="450" width="120" height="50" as="geometry" />
        </mxCell>
        <mxCell id="76cQF0Q09tYwVLHvztgj-90" value="" style="endArrow=none;html=1;rounded=0;entryX=0;entryY=0.3333333333333333;entryDx=0;entryDy=0;entryPerimeter=0;exitX=0.677;exitY=0;exitDx=0;exitDy=0;exitPerimeter=0;" edge="1" parent="1" source="76cQF0Q09tYwVLHvztgj-89" target="76cQF0Q09tYwVLHvztgj-49">
          <mxGeometry width="50" height="50" relative="1" as="geometry">
            <mxPoint x="190" y="110" as="sourcePoint" />
            <mxPoint x="240" y="60" as="targetPoint" />
          </mxGeometry>
        </mxCell>
        <mxCell id="76cQF0Q09tYwVLHvztgj-97" value="Store information management" style="ellipse;whiteSpace=wrap;html=1;" vertex="1" parent="1">
          <mxGeometry x="733" y="400" width="120" height="61" as="geometry" />
        </mxCell>
        <mxCell id="76cQF0Q09tYwVLHvztgj-98" value="" style="endArrow=none;html=1;rounded=0;entryX=0;entryY=0.3333333333333333;entryDx=0;entryDy=0;entryPerimeter=0;exitX=0.412;exitY=0.049;exitDx=0;exitDy=0;exitPerimeter=0;" edge="1" parent="1" source="76cQF0Q09tYwVLHvztgj-97" target="76cQF0Q09tYwVLHvztgj-49">
          <mxGeometry width="50" height="50" relative="1" as="geometry">
            <mxPoint x="424" y="144" as="sourcePoint" />
            <mxPoint x="474" y="94" as="targetPoint" />
          </mxGeometry>
        </mxCell>
      </root>
    </mxGraphModel>
  </diagram>
</mxfile>
